HIERARCHY
ROOT Hips
{
 OFFSET 0.000000 0.000000 0.000000
 CHANNELS 6 Xposition Yposition Zposition Yrotation Xrotation Zrotation
 JOINT Chest
 {
  OFFSET 0.000000 10.080317 -0.001081
  CHANNELS 3 Yrotation Xrotation Zrotation
  JOINT Chest2
  {
   OFFSET 0.000000 11.096852 0.001963
   CHANNELS 3 Yrotation Xrotation Zrotation
   JOINT Chest3
   {
    OFFSET 0.000000 10.026525 0.000000
    CHANNELS 3 Yrotation Xrotation Zrotation
    JOINT Chest4
    {
     OFFSET 0.000000 10.026525 0.000000
     CHANNELS 3 Yrotation Xrotation Zrotation
     JOINT Neck
     {
      OFFSET 0.000000 14.108171 0.000000
      CHANNELS 3 Yrotation Xrotation Zrotation
      JOINT Head
      {
       OFFSET 0.000000 9.333493 0.004668
       CHANNELS 3 Yrotation Xrotation Zrotation
       End Site
       {
        OFFSET 0.000000 17.851786 0.002438
       }
      }
     }
     JOINT RightCollar
     {
      OFFSET -3.071622 7.873185 0.000000
      CHANNELS 3 Yrotation Xrotation Zrotation
      JOINT RightShoulder
      {
       OFFSET -14.378659 0.000000 0.000000
       CHANNELS 3 Yrotation Xrotation Zrotation
       JOINT RightElbow
       {
        OFFSET -30.778728 0.000000 0.000000
        CHANNELS 3 Yrotation Xrotation Zrotation
        JOINT RightWrist
        {
         OFFSET -25.164217 0.000000 0.000000
         CHANNELS 3 Yrotation Xrotation Zrotation
         End Site
         {
          OFFSET -18.796788 0.000000 0.000000
         }
        }
       }
      }
     }
     JOINT LeftCollar
     {
      OFFSET 3.071622 7.873185 0.000000
      CHANNELS 3 Yrotation Xrotation Zrotation
      JOINT LeftShoulder
      {
       OFFSET 14.378659 0.000000 0.000000
       CHANNELS 3 Yrotation Xrotation Zrotation
       JOINT LeftElbow
       {
        OFFSET 30.778728 0.000000 0.000000
        CHANNELS 3 Yrotation Xrotation Zrotation
        JOINT LeftWrist
        {
         OFFSET 25.164217 0.000000 0.000000
         CHANNELS 3 Yrotation Xrotation Zrotation
         End Site
         {
          OFFSET 18.796788 0.000000 0.000000
         }
        }
       }
      }
     }
    }
   }
  }
 }
 JOINT RightHip
 {
  OFFSET -8.194923 0.005295 0.000540
  CHANNELS 3 Yrotation Xrotation Zrotation
  JOINT RightKnee
  {
   OFFSET 0.000000 -42.473320 -0.000511
   CHANNELS 3 Yrotation Xrotation Zrotation
   JOINT RightAnkle
   {
    OFFSET 0.000000 -41.474259 -0.000865
    CHANNELS 3 Yrotation Xrotation Zrotation
    JOINT RightToe
    {
     OFFSET 0.000000 -7.354994 16.712725
     CHANNELS 3 Yrotation Xrotation Zrotation
     End Site
     {
      OFFSET 0.000000 -1.553903 6.764158
     }
    }
   }
  }
 }
 JOINT LeftHip
 {
  OFFSET 8.194923 0.005295 0.000540
  CHANNELS 3 Yrotation Xrotation Zrotation
  JOINT LeftKnee
  {
   OFFSET 0.000000 -42.473320 -0.000511
   CHANNELS 3 Yrotation Xrotation Zrotation
   JOINT LeftAnkle
   {
    OFFSET 0.000000 -41.474259 -0.000865
    CHANNELS 3 Yrotation Xrotation Zrotation
    JOINT LeftToe
    {
     OFFSET 0.000000 -7.354994 16.712725
     CHANNELS 3 Yrotation Xrotation Zrotation
     End Site
     {
      OFFSET 0.000000 -1.553903 6.764158
     }
    }
   }
  }
 }
}
MOTION
Frames: 8
Frame Time: 0.016667
-40.167189 86.755409 120.536293 -19.152222 -45.146066 6.771541 3.483202 12.306990 -7.220701 1.848343 5.186719 -3.435488 1.848343 5.186719 -3.435488 1.414589 3.879846 -2.590605 7.984894 26.837710 7.587828 12.560992 13.383526 11.767386 0.468106 1.929915 15.911863 9.523771 -34.666157 43.900846 109.618519 -31.042403 30.444901 2.228660 0.797322 -2.786413 -25.858377 2.146405 -5.566989 -23.073272 -61.652249 -39.105668 -39.309479 23.717635 -19.314604 -3.486365 7.616284 22.476191 -13.589401 31.280692 -9.956702 -12.557131 41.152288 -12.550868 -20.508582 -30.945737 6.380891 0.067558 1.022730 0.623661 -54.168799 -40.823405 68.558724 -7.558171 16.442012 2.071058 -17.220962 32.208016 -22.899353 -0.645603 3.015583 -2.425188
-40.392536 86.820256 121.590391 -20.195253 -46.405058 7.360736 3.637162 12.287125 -7.593084 1.779261 5.035703 -3.526407 1.779261 5.035703 -3.526407 1.362762 3.766706 -2.657819 8.259480 27.107597 7.815284 13.017083 13.864979 12.131279 0.235185 2.264400 16.225814 8.229280 -34.792226 44.340557 108.933296 -32.312055 31.753373 1.985052 0.651034 -2.360592 -26.084325 2.995806 -5.843570 -23.364969 -61.622067 -37.908958 -37.520021 24.102831 -18.413600 -3.605481 7.510991 22.286278 -14.031971 33.738711 -11.174657 -12.401892 40.195706 -11.981067 -20.111895 -30.913961 6.330626 -0.026783 0.768270 0.602262 -49.274292 -44.934932 65.382086 -11.484815 13.527896 3.584658 -17.456150 32.212069 -23.516942 -1.648307 3.852990 -1.099167
-40.638349 86.883919 122.475486 -20.405304 -47.059512 7.072766 3.640526 12.128320 -7.614632 1.730817 4.944708 -3.526082 1.730817 4.944708 -3.526082 1.325950 3.698734 -2.656977 8.298269 27.221242 8.008160 13.051979 14.065935 12.473997 -0.113619 2.346736 16.357577 7.017261 -34.740555 44.794657 108.282255 -33.357710 32.518444 1.816899 0.431977 -1.994824 -26.492142 3.437617 -6.031379 -23.183118 -61.774596 -37.526921 -36.380701 24.086890 -17.657092 -3.761380 7.413508 22.255775 -14.336910 35.338657 -11.473575 -12.375349 39.476952 -11.758823 -19.944552 -30.727339 6.430857 -0.103511 0.492633 0.561891 -48.890959 -43.966180 65.317970 -13.852126 11.502156 4.545854 -16.210333 32.607904 -24.774579 -1.341186 3.101655 -0.922298
-40.844292 86.955151 122.998621 -20.588622 -47.164048 6.723327 3.472228 11.723314 -7.503270 1.691036 4.944150 -3.507531 1.691036 4.944150 -3.507531 1.295978 3.698594 -2.642747 8.259686 27.210487 8.008921 12.982499 14.047323 12.482856 -0.184337 2.274432 16.224213 6.321558 -34.643824 45.120830 107.903825 -33.790307 32.574732 1.705356 0.271573 -1.700275 -26.589131 3.440142 -6.174254 -22.961124 -62.038638 -37.355990 -35.833308 24.102173 -17.278663 -3.876266 7.366602 22.206486 -14.188031 36.038216 -11.293659 -12.029638 39.403886 -11.526652 -20.051466 -30.588824 6.755753 -0.273419 0.104642 0.362458 -51.769159 -40.004044 68.116248 -12.016449 11.231403 4.681306 -16.393288 32.872348 -25.523628 -0.070135 1.473923 -1.051359
-40.852292 86.917561 123.512348 -21.141763 -46.922548 7.083827 3.317369 11.598819 -7.626824 1.651670 4.950590 -3.511852 1.651670 4.950590 -3.511852 1.266541 3.703636 -2.645679 8.197687 27.074385 7.793854 12.909672 13.806382 12.104136 -0.027384 1.873463 15.875317 5.935128 -34.598542 45.318702 107.657567 -33.856817 32.350391 1.693643 0.168624 -1.502226 -26.570858 2.970529 -6.241835 -23.422147 -62.137195 -36.629567 -35.514332 24.244191 -17.023397 -3.918009 7.391188 22.057186 -14.134463 35.800887 -11.631147 -11.383438 40.013544 -11.261739 -20.482775 -30.741431 7.089847 -0.204311 -0.146642 0.279319 -52.125146 -38.544705 68.796217 -11.435323 11.408027 4.608558 -15.799612 32.649126 -24.755593 0.341141 0.507609 -1.006270
-40.771543 86.888794 123.769390 -21.544663 -46.509156 7.599696 3.212651 11.540380 -7.783050 1.556742 4.976330 -3.575743 1.556742 4.976330 -3.575743 1.196051 3.723327 -2.692843 8.130164 26.949579 7.527783 12.839664 13.588683 11.636822 0.135722 1.397464 15.552781 5.997309 -34.623338 45.341829 107.378862 -33.733380 32.069943 1.681400 0.024344 -1.340718 -26.551226 2.406170 -6.179373 -24.279091 -62.098684 -35.540074 -35.253220 24.386726 -16.811659 -3.883991 7.431542 21.849168 -14.413552 34.982319 -12.327954 -11.359535 40.799970 -11.387882 -20.406041 -30.578672 7.181504 0.000462 -0.679674 0.375270 -50.597239 -39.716785 67.905871 -11.480154 12.184303 4.159282 -15.629705 31.816235 -23.320946 0.229752 0.130686 -0.347498
-40.802791 86.805040 123.836711 -21.710426 -46.012838 7.934837 3.131989 11.410297 -7.938226 1.459620 5.003293 -3.608193 1.459620 5.003293 -3.608193 1.123671 3.744040 -2.716416 8.099203 26.885229 7.287284 12.833491 13.480927 11.211362 0.323997 1.031945 15.339213 6.276422 -34.721080 45.164291 107.165770 -33.548948 31.789538 1.640800 -0.068696 -1.126766 -26.554264 2.038514 -6.150881 -25.234191 -62.192253 -34.443743 -34.879350 24.459680 -16.480786 -3.873332 7.406270 21.671872 -14.566360 34.127463 -12.695670 -11.415479 41.386429 -11.409337 -20.321295 -30.490338 7.059036 0.068813 -0.991768 0.435782 -49.354727 -40.936340 66.910386 -11.191849 13.970094 3.503469 -15.310881 31.126414 -22.170695 -0.040740 -0.364568 0.583361
-40.961201 86.709054 123.746071 -21.981289 -45.562494 8.056625 3.240013 11.500976 -7.934417 1.442608 5.004084 -3.566684 1.442608 5.004084 -3.566684 1.110582 3.744827 -2.685166 8.105856 26.818993 7.144484 12.872975 13.364671 10.951199 0.381696 0.747167 15.178603 6.576607 -34.800012 44.912414 107.145495 -33.391523 31.500651 1.619766 -0.107244 -1.041386 -26.674658 1.706250 -6.180784 -25.965451 -62.405718 -33.655890 -34.488045 24.296980 -16.109084 -3.931881 7.323558 21.577711 -13.747154 33.673463 -12.056028 -11.487282 41.604739 -11.336650 -20.686049 -30.608893 6.948664 0.047366 -0.816866 0.429691 -48.358575 -40.948905 66.070185 -11.412222 15.769652 2.712822 -14.359333 31.005753 -21.537339 -0.042940 -1.258391 1.032772
